G75*
%MOIN*%
%OFA0B0*%
%FSLAX25Y25*%
%IPPOS*%
%LPD*%
%AMOC8*
5,1,8,0,0,1.08239X$1,22.5*
%
%ADD10R,0.04331X0.03937*%
%ADD11R,0.07874X0.04724*%
%ADD12R,0.05315X0.02362*%
%ADD13C,0.01181*%
%ADD14R,0.04724X0.02362*%
D10*
X0037904Y0047250D03*
X0044596Y0047250D03*
X0054404Y0055750D03*
X0061096Y0055750D03*
X0068404Y0055750D03*
X0075096Y0055750D03*
X0082404Y0055750D03*
X0082096Y0062250D03*
X0075404Y0062250D03*
X0089096Y0055750D03*
X0096404Y0055750D03*
X0103096Y0055750D03*
X0139904Y0047250D03*
X0146596Y0047250D03*
X0156404Y0055750D03*
X0163096Y0055750D03*
X0170404Y0055750D03*
X0177096Y0055750D03*
X0177404Y0062250D03*
X0184096Y0062250D03*
X0184404Y0055750D03*
X0191096Y0055750D03*
X0198404Y0055750D03*
X0205096Y0055750D03*
X0241904Y0047250D03*
X0248596Y0047250D03*
X0258404Y0055750D03*
X0265096Y0055750D03*
X0272404Y0055750D03*
X0279096Y0055750D03*
X0286404Y0055750D03*
X0286096Y0062250D03*
X0279404Y0062250D03*
X0293096Y0055750D03*
X0300404Y0055750D03*
X0307096Y0055750D03*
X0296096Y0093750D03*
X0289404Y0093750D03*
X0276096Y0093750D03*
X0269404Y0093750D03*
X0248596Y0149250D03*
X0241904Y0149250D03*
X0258404Y0157750D03*
X0265096Y0157750D03*
X0272404Y0157750D03*
X0279096Y0157750D03*
X0279404Y0164250D03*
X0286096Y0164250D03*
X0286404Y0157750D03*
X0293096Y0157750D03*
X0300404Y0157750D03*
X0307096Y0157750D03*
X0296096Y0195750D03*
X0289404Y0195750D03*
X0276096Y0195750D03*
X0269404Y0195750D03*
X0248596Y0251250D03*
X0241904Y0251250D03*
X0258404Y0259750D03*
X0265096Y0259750D03*
X0272404Y0259750D03*
X0279096Y0259750D03*
X0286404Y0259750D03*
X0286096Y0266250D03*
X0279404Y0266250D03*
X0293096Y0259750D03*
X0300404Y0259750D03*
X0307096Y0259750D03*
X0296096Y0297750D03*
X0289404Y0297750D03*
X0276096Y0297750D03*
X0269404Y0297750D03*
X0205096Y0259750D03*
X0198404Y0259750D03*
X0191096Y0259750D03*
X0184404Y0259750D03*
X0184096Y0266250D03*
X0177404Y0266250D03*
X0177096Y0259750D03*
X0170404Y0259750D03*
X0163096Y0259750D03*
X0156404Y0259750D03*
X0146596Y0251250D03*
X0139904Y0251250D03*
X0103096Y0259750D03*
X0096404Y0259750D03*
X0089096Y0259750D03*
X0082404Y0259750D03*
X0075096Y0259750D03*
X0075404Y0266250D03*
X0082096Y0266250D03*
X0068404Y0259750D03*
X0061096Y0259750D03*
X0054404Y0259750D03*
X0044596Y0251250D03*
X0037904Y0251250D03*
X0065404Y0297750D03*
X0072096Y0297750D03*
X0085404Y0297750D03*
X0092096Y0297750D03*
X0167404Y0297750D03*
X0174096Y0297750D03*
X0187404Y0297750D03*
X0194096Y0297750D03*
X0194096Y0195750D03*
X0187404Y0195750D03*
X0174096Y0195750D03*
X0167404Y0195750D03*
X0177404Y0164250D03*
X0177096Y0157750D03*
X0170404Y0157750D03*
X0163096Y0157750D03*
X0156404Y0157750D03*
X0146596Y0149250D03*
X0139904Y0149250D03*
X0103096Y0157750D03*
X0096404Y0157750D03*
X0089096Y0157750D03*
X0082404Y0157750D03*
X0082096Y0164250D03*
X0075404Y0164250D03*
X0075096Y0157750D03*
X0068404Y0157750D03*
X0061096Y0157750D03*
X0054404Y0157750D03*
X0044596Y0149250D03*
X0037904Y0149250D03*
X0065404Y0195750D03*
X0072096Y0195750D03*
X0085404Y0195750D03*
X0092096Y0195750D03*
X0184096Y0164250D03*
X0184404Y0157750D03*
X0191096Y0157750D03*
X0198404Y0157750D03*
X0205096Y0157750D03*
X0194096Y0093750D03*
X0187404Y0093750D03*
X0174096Y0093750D03*
X0167404Y0093750D03*
X0092096Y0093750D03*
X0085404Y0093750D03*
X0072096Y0093750D03*
X0065404Y0093750D03*
D11*
X0034281Y0089774D03*
X0034281Y0067726D03*
X0123219Y0067726D03*
X0136281Y0067726D03*
X0136281Y0089774D03*
X0123219Y0089774D03*
X0123219Y0169726D03*
X0136281Y0169726D03*
X0136281Y0191774D03*
X0123219Y0191774D03*
X0123219Y0271726D03*
X0136281Y0271726D03*
X0136281Y0293774D03*
X0123219Y0293774D03*
X0034281Y0293774D03*
X0034281Y0271726D03*
X0034281Y0191774D03*
X0034281Y0169726D03*
X0225219Y0169726D03*
X0238281Y0169726D03*
X0238281Y0191774D03*
X0225219Y0191774D03*
X0225219Y0271726D03*
X0238281Y0271726D03*
X0238281Y0293774D03*
X0225219Y0293774D03*
X0327219Y0293774D03*
X0327219Y0271726D03*
X0327219Y0191774D03*
X0327219Y0169726D03*
X0327219Y0089774D03*
X0327219Y0067726D03*
X0238281Y0067726D03*
X0225219Y0067726D03*
X0225219Y0089774D03*
X0238281Y0089774D03*
D12*
X0252750Y0084656D03*
X0252750Y0080719D03*
X0252750Y0076781D03*
X0252750Y0072844D03*
X0210750Y0072844D03*
X0210750Y0076781D03*
X0210750Y0080719D03*
X0210750Y0084656D03*
X0150750Y0084656D03*
X0150750Y0080719D03*
X0150750Y0076781D03*
X0150750Y0072844D03*
X0108750Y0072844D03*
X0108750Y0076781D03*
X0108750Y0080719D03*
X0108750Y0084656D03*
X0048750Y0084656D03*
X0048750Y0080719D03*
X0048750Y0076781D03*
X0048750Y0072844D03*
X0048750Y0174844D03*
X0048750Y0178781D03*
X0048750Y0182719D03*
X0048750Y0186656D03*
X0108750Y0186656D03*
X0108750Y0182719D03*
X0108750Y0178781D03*
X0108750Y0174844D03*
X0150750Y0174844D03*
X0150750Y0178781D03*
X0150750Y0182719D03*
X0150750Y0186656D03*
X0210750Y0186656D03*
X0210750Y0182719D03*
X0210750Y0178781D03*
X0210750Y0174844D03*
X0252750Y0174844D03*
X0252750Y0178781D03*
X0252750Y0182719D03*
X0252750Y0186656D03*
X0312750Y0186656D03*
X0312750Y0182719D03*
X0312750Y0178781D03*
X0312750Y0174844D03*
X0312750Y0084656D03*
X0312750Y0080719D03*
X0312750Y0076781D03*
X0312750Y0072844D03*
X0312750Y0276844D03*
X0312750Y0280781D03*
X0312750Y0284719D03*
X0312750Y0288656D03*
X0252750Y0288656D03*
X0252750Y0284719D03*
X0252750Y0280781D03*
X0252750Y0276844D03*
X0210750Y0276844D03*
X0210750Y0280781D03*
X0210750Y0284719D03*
X0210750Y0288656D03*
X0150750Y0288656D03*
X0150750Y0284719D03*
X0150750Y0280781D03*
X0150750Y0276844D03*
X0108750Y0276844D03*
X0108750Y0280781D03*
X0108750Y0284719D03*
X0108750Y0288656D03*
X0048750Y0288656D03*
X0048750Y0284719D03*
X0048750Y0280781D03*
X0048750Y0276844D03*
D13*
X0043325Y0258128D02*
X0043325Y0255372D01*
X0043325Y0258128D02*
X0046081Y0258128D01*
X0046081Y0255372D01*
X0043325Y0255372D01*
X0043325Y0256552D02*
X0046081Y0256552D01*
X0046081Y0257732D02*
X0043325Y0257732D01*
X0036419Y0258128D02*
X0036419Y0255372D01*
X0036419Y0258128D02*
X0039175Y0258128D01*
X0039175Y0255372D01*
X0036419Y0255372D01*
X0036419Y0256552D02*
X0039175Y0256552D01*
X0039175Y0257732D02*
X0036419Y0257732D01*
X0138419Y0258128D02*
X0138419Y0255372D01*
X0138419Y0258128D02*
X0141175Y0258128D01*
X0141175Y0255372D01*
X0138419Y0255372D01*
X0138419Y0256552D02*
X0141175Y0256552D01*
X0141175Y0257732D02*
X0138419Y0257732D01*
X0145325Y0258128D02*
X0145325Y0255372D01*
X0145325Y0258128D02*
X0148081Y0258128D01*
X0148081Y0255372D01*
X0145325Y0255372D01*
X0145325Y0256552D02*
X0148081Y0256552D01*
X0148081Y0257732D02*
X0145325Y0257732D01*
X0240419Y0258128D02*
X0240419Y0255372D01*
X0240419Y0258128D02*
X0243175Y0258128D01*
X0243175Y0255372D01*
X0240419Y0255372D01*
X0240419Y0256552D02*
X0243175Y0256552D01*
X0243175Y0257732D02*
X0240419Y0257732D01*
X0247325Y0258128D02*
X0247325Y0255372D01*
X0247325Y0258128D02*
X0250081Y0258128D01*
X0250081Y0255372D01*
X0247325Y0255372D01*
X0247325Y0256552D02*
X0250081Y0256552D01*
X0250081Y0257732D02*
X0247325Y0257732D01*
X0247325Y0156128D02*
X0247325Y0153372D01*
X0247325Y0156128D02*
X0250081Y0156128D01*
X0250081Y0153372D01*
X0247325Y0153372D01*
X0247325Y0154552D02*
X0250081Y0154552D01*
X0250081Y0155732D02*
X0247325Y0155732D01*
X0240419Y0156128D02*
X0240419Y0153372D01*
X0240419Y0156128D02*
X0243175Y0156128D01*
X0243175Y0153372D01*
X0240419Y0153372D01*
X0240419Y0154552D02*
X0243175Y0154552D01*
X0243175Y0155732D02*
X0240419Y0155732D01*
X0145325Y0156128D02*
X0145325Y0153372D01*
X0145325Y0156128D02*
X0148081Y0156128D01*
X0148081Y0153372D01*
X0145325Y0153372D01*
X0145325Y0154552D02*
X0148081Y0154552D01*
X0148081Y0155732D02*
X0145325Y0155732D01*
X0138419Y0156128D02*
X0138419Y0153372D01*
X0138419Y0156128D02*
X0141175Y0156128D01*
X0141175Y0153372D01*
X0138419Y0153372D01*
X0138419Y0154552D02*
X0141175Y0154552D01*
X0141175Y0155732D02*
X0138419Y0155732D01*
X0043325Y0156128D02*
X0043325Y0153372D01*
X0043325Y0156128D02*
X0046081Y0156128D01*
X0046081Y0153372D01*
X0043325Y0153372D01*
X0043325Y0154552D02*
X0046081Y0154552D01*
X0046081Y0155732D02*
X0043325Y0155732D01*
X0036419Y0156128D02*
X0036419Y0153372D01*
X0036419Y0156128D02*
X0039175Y0156128D01*
X0039175Y0153372D01*
X0036419Y0153372D01*
X0036419Y0154552D02*
X0039175Y0154552D01*
X0039175Y0155732D02*
X0036419Y0155732D01*
X0036419Y0054128D02*
X0036419Y0051372D01*
X0036419Y0054128D02*
X0039175Y0054128D01*
X0039175Y0051372D01*
X0036419Y0051372D01*
X0036419Y0052552D02*
X0039175Y0052552D01*
X0039175Y0053732D02*
X0036419Y0053732D01*
X0043325Y0054128D02*
X0043325Y0051372D01*
X0043325Y0054128D02*
X0046081Y0054128D01*
X0046081Y0051372D01*
X0043325Y0051372D01*
X0043325Y0052552D02*
X0046081Y0052552D01*
X0046081Y0053732D02*
X0043325Y0053732D01*
X0138419Y0054128D02*
X0138419Y0051372D01*
X0138419Y0054128D02*
X0141175Y0054128D01*
X0141175Y0051372D01*
X0138419Y0051372D01*
X0138419Y0052552D02*
X0141175Y0052552D01*
X0141175Y0053732D02*
X0138419Y0053732D01*
X0145325Y0054128D02*
X0145325Y0051372D01*
X0145325Y0054128D02*
X0148081Y0054128D01*
X0148081Y0051372D01*
X0145325Y0051372D01*
X0145325Y0052552D02*
X0148081Y0052552D01*
X0148081Y0053732D02*
X0145325Y0053732D01*
X0240419Y0054128D02*
X0240419Y0051372D01*
X0240419Y0054128D02*
X0243175Y0054128D01*
X0243175Y0051372D01*
X0240419Y0051372D01*
X0240419Y0052552D02*
X0243175Y0052552D01*
X0243175Y0053732D02*
X0240419Y0053732D01*
X0247325Y0054128D02*
X0247325Y0051372D01*
X0247325Y0054128D02*
X0250081Y0054128D01*
X0250081Y0051372D01*
X0247325Y0051372D01*
X0247325Y0052552D02*
X0250081Y0052552D01*
X0250081Y0053732D02*
X0247325Y0053732D01*
D14*
X0271726Y0071250D03*
X0271726Y0076250D03*
X0271726Y0081250D03*
X0271726Y0086250D03*
X0293774Y0086250D03*
X0293774Y0081250D03*
X0293774Y0076250D03*
X0293774Y0071250D03*
X0191774Y0071250D03*
X0191774Y0076250D03*
X0191774Y0081250D03*
X0191774Y0086250D03*
X0169726Y0086250D03*
X0169726Y0081250D03*
X0169726Y0076250D03*
X0169726Y0071250D03*
X0089774Y0071250D03*
X0089774Y0076250D03*
X0089774Y0081250D03*
X0089774Y0086250D03*
X0067726Y0086250D03*
X0067726Y0081250D03*
X0067726Y0076250D03*
X0067726Y0071250D03*
X0067726Y0173250D03*
X0067726Y0178250D03*
X0067726Y0183250D03*
X0067726Y0188250D03*
X0089774Y0188250D03*
X0089774Y0183250D03*
X0089774Y0178250D03*
X0089774Y0173250D03*
X0169726Y0173250D03*
X0169726Y0178250D03*
X0169726Y0183250D03*
X0169726Y0188250D03*
X0191774Y0188250D03*
X0191774Y0183250D03*
X0191774Y0178250D03*
X0191774Y0173250D03*
X0271726Y0173250D03*
X0271726Y0178250D03*
X0271726Y0183250D03*
X0271726Y0188250D03*
X0293774Y0188250D03*
X0293774Y0183250D03*
X0293774Y0178250D03*
X0293774Y0173250D03*
X0293774Y0275250D03*
X0293774Y0280250D03*
X0293774Y0285250D03*
X0293774Y0290250D03*
X0271726Y0290250D03*
X0271726Y0285250D03*
X0271726Y0280250D03*
X0271726Y0275250D03*
X0191774Y0275250D03*
X0191774Y0280250D03*
X0191774Y0285250D03*
X0191774Y0290250D03*
X0169726Y0290250D03*
X0169726Y0285250D03*
X0169726Y0280250D03*
X0169726Y0275250D03*
X0089774Y0275250D03*
X0089774Y0280250D03*
X0089774Y0285250D03*
X0089774Y0290250D03*
X0067726Y0290250D03*
X0067726Y0285250D03*
X0067726Y0280250D03*
X0067726Y0275250D03*
M02*
