G75*
%MOIN*%
%OFA0B0*%
%FSLAX25Y25*%
%IPPOS*%
%LPD*%
%AMOC8*
5,1,8,0,0,1.08239X$1,22.5*
%
%ADD10C,0.13800*%
%ADD11C,0.03300*%
%ADD12R,0.05131X0.04737*%
%ADD13R,0.08674X0.05524*%
%ADD14R,0.06115X0.03162*%
%ADD15C,0.08200*%
%ADD16C,0.01421*%
%ADD17R,0.05524X0.03162*%
%ADD18C,0.04737*%
%ADD19C,0.05000*%
%ADD20C,0.06706*%
D10*
X0038750Y0118750D03*
X0118750Y0118750D03*
X0140750Y0118750D03*
X0220750Y0118750D03*
X0242750Y0118750D03*
X0322750Y0118750D03*
X0322750Y0220750D03*
X0242750Y0220750D03*
X0220750Y0220750D03*
X0140750Y0220750D03*
X0118750Y0220750D03*
X0038750Y0220750D03*
X0038750Y0322750D03*
X0118750Y0322750D03*
X0140750Y0322750D03*
X0220750Y0322750D03*
X0242750Y0322750D03*
X0322750Y0322750D03*
D11*
X0235750Y0329750D03*
X0227250Y0236250D03*
X0235750Y0227750D03*
X0329250Y0236250D03*
X0329250Y0134250D03*
X0235750Y0125750D03*
X0227250Y0134250D03*
X0133750Y0125750D03*
X0125250Y0134250D03*
X0031750Y0125750D03*
X0125250Y0032250D03*
X0227250Y0032250D03*
X0329250Y0032250D03*
X0133750Y0227750D03*
X0125250Y0236250D03*
X0031750Y0227750D03*
X0031750Y0329750D03*
X0133750Y0329750D03*
D12*
X0037904Y0047250D03*
X0044596Y0047250D03*
X0054404Y0055750D03*
X0061096Y0055750D03*
X0068404Y0055750D03*
X0075096Y0055750D03*
X0082404Y0055750D03*
X0082096Y0062250D03*
X0075404Y0062250D03*
X0089096Y0055750D03*
X0096404Y0055750D03*
X0103096Y0055750D03*
X0139904Y0047250D03*
X0146596Y0047250D03*
X0156404Y0055750D03*
X0163096Y0055750D03*
X0170404Y0055750D03*
X0177096Y0055750D03*
X0177404Y0062250D03*
X0184096Y0062250D03*
X0184404Y0055750D03*
X0191096Y0055750D03*
X0198404Y0055750D03*
X0205096Y0055750D03*
X0241904Y0047250D03*
X0248596Y0047250D03*
X0258404Y0055750D03*
X0265096Y0055750D03*
X0272404Y0055750D03*
X0279096Y0055750D03*
X0286404Y0055750D03*
X0286096Y0062250D03*
X0279404Y0062250D03*
X0293096Y0055750D03*
X0300404Y0055750D03*
X0307096Y0055750D03*
X0296096Y0093750D03*
X0289404Y0093750D03*
X0276096Y0093750D03*
X0269404Y0093750D03*
X0248596Y0149250D03*
X0241904Y0149250D03*
X0258404Y0157750D03*
X0265096Y0157750D03*
X0272404Y0157750D03*
X0279096Y0157750D03*
X0279404Y0164250D03*
X0286096Y0164250D03*
X0286404Y0157750D03*
X0293096Y0157750D03*
X0300404Y0157750D03*
X0307096Y0157750D03*
X0296096Y0195750D03*
X0289404Y0195750D03*
X0276096Y0195750D03*
X0269404Y0195750D03*
X0248596Y0251250D03*
X0241904Y0251250D03*
X0258404Y0259750D03*
X0265096Y0259750D03*
X0272404Y0259750D03*
X0279096Y0259750D03*
X0286404Y0259750D03*
X0286096Y0266250D03*
X0279404Y0266250D03*
X0293096Y0259750D03*
X0300404Y0259750D03*
X0307096Y0259750D03*
X0296096Y0297750D03*
X0289404Y0297750D03*
X0276096Y0297750D03*
X0269404Y0297750D03*
X0205096Y0259750D03*
X0198404Y0259750D03*
X0191096Y0259750D03*
X0184404Y0259750D03*
X0184096Y0266250D03*
X0177404Y0266250D03*
X0177096Y0259750D03*
X0170404Y0259750D03*
X0163096Y0259750D03*
X0156404Y0259750D03*
X0146596Y0251250D03*
X0139904Y0251250D03*
X0103096Y0259750D03*
X0096404Y0259750D03*
X0089096Y0259750D03*
X0082404Y0259750D03*
X0075096Y0259750D03*
X0075404Y0266250D03*
X0082096Y0266250D03*
X0068404Y0259750D03*
X0061096Y0259750D03*
X0054404Y0259750D03*
X0044596Y0251250D03*
X0037904Y0251250D03*
X0065404Y0297750D03*
X0072096Y0297750D03*
X0085404Y0297750D03*
X0092096Y0297750D03*
X0167404Y0297750D03*
X0174096Y0297750D03*
X0187404Y0297750D03*
X0194096Y0297750D03*
X0194096Y0195750D03*
X0187404Y0195750D03*
X0174096Y0195750D03*
X0167404Y0195750D03*
X0177404Y0164250D03*
X0177096Y0157750D03*
X0170404Y0157750D03*
X0163096Y0157750D03*
X0156404Y0157750D03*
X0146596Y0149250D03*
X0139904Y0149250D03*
X0103096Y0157750D03*
X0096404Y0157750D03*
X0089096Y0157750D03*
X0082404Y0157750D03*
X0082096Y0164250D03*
X0075404Y0164250D03*
X0075096Y0157750D03*
X0068404Y0157750D03*
X0061096Y0157750D03*
X0054404Y0157750D03*
X0044596Y0149250D03*
X0037904Y0149250D03*
X0065404Y0195750D03*
X0072096Y0195750D03*
X0085404Y0195750D03*
X0092096Y0195750D03*
X0184096Y0164250D03*
X0184404Y0157750D03*
X0191096Y0157750D03*
X0198404Y0157750D03*
X0205096Y0157750D03*
X0194096Y0093750D03*
X0187404Y0093750D03*
X0174096Y0093750D03*
X0167404Y0093750D03*
X0092096Y0093750D03*
X0085404Y0093750D03*
X0072096Y0093750D03*
X0065404Y0093750D03*
D13*
X0034281Y0089774D03*
X0034281Y0067726D03*
X0123219Y0067726D03*
X0136281Y0067726D03*
X0136281Y0089774D03*
X0123219Y0089774D03*
X0123219Y0169726D03*
X0136281Y0169726D03*
X0136281Y0191774D03*
X0123219Y0191774D03*
X0123219Y0271726D03*
X0136281Y0271726D03*
X0136281Y0293774D03*
X0123219Y0293774D03*
X0034281Y0293774D03*
X0034281Y0271726D03*
X0034281Y0191774D03*
X0034281Y0169726D03*
X0225219Y0169726D03*
X0238281Y0169726D03*
X0238281Y0191774D03*
X0225219Y0191774D03*
X0225219Y0271726D03*
X0238281Y0271726D03*
X0238281Y0293774D03*
X0225219Y0293774D03*
X0327219Y0293774D03*
X0327219Y0271726D03*
X0327219Y0191774D03*
X0327219Y0169726D03*
X0327219Y0089774D03*
X0327219Y0067726D03*
X0238281Y0067726D03*
X0225219Y0067726D03*
X0225219Y0089774D03*
X0238281Y0089774D03*
D14*
X0252750Y0084656D03*
X0252750Y0080719D03*
X0252750Y0076781D03*
X0252750Y0072844D03*
X0210750Y0072844D03*
X0210750Y0076781D03*
X0210750Y0080719D03*
X0210750Y0084656D03*
X0150750Y0084656D03*
X0150750Y0080719D03*
X0150750Y0076781D03*
X0150750Y0072844D03*
X0108750Y0072844D03*
X0108750Y0076781D03*
X0108750Y0080719D03*
X0108750Y0084656D03*
X0048750Y0084656D03*
X0048750Y0080719D03*
X0048750Y0076781D03*
X0048750Y0072844D03*
X0048750Y0174844D03*
X0048750Y0178781D03*
X0048750Y0182719D03*
X0048750Y0186656D03*
X0108750Y0186656D03*
X0108750Y0182719D03*
X0108750Y0178781D03*
X0108750Y0174844D03*
X0150750Y0174844D03*
X0150750Y0178781D03*
X0150750Y0182719D03*
X0150750Y0186656D03*
X0210750Y0186656D03*
X0210750Y0182719D03*
X0210750Y0178781D03*
X0210750Y0174844D03*
X0252750Y0174844D03*
X0252750Y0178781D03*
X0252750Y0182719D03*
X0252750Y0186656D03*
X0312750Y0186656D03*
X0312750Y0182719D03*
X0312750Y0178781D03*
X0312750Y0174844D03*
X0312750Y0084656D03*
X0312750Y0080719D03*
X0312750Y0076781D03*
X0312750Y0072844D03*
X0312750Y0276844D03*
X0312750Y0280781D03*
X0312750Y0284719D03*
X0312750Y0288656D03*
X0252750Y0288656D03*
X0252750Y0284719D03*
X0252750Y0280781D03*
X0252750Y0276844D03*
X0210750Y0276844D03*
X0210750Y0280781D03*
X0210750Y0284719D03*
X0210750Y0288656D03*
X0150750Y0288656D03*
X0150750Y0284719D03*
X0150750Y0280781D03*
X0150750Y0276844D03*
X0108750Y0276844D03*
X0108750Y0280781D03*
X0108750Y0284719D03*
X0108750Y0288656D03*
X0048750Y0288656D03*
X0048750Y0284719D03*
X0048750Y0280781D03*
X0048750Y0276844D03*
D15*
X0058750Y0237750D03*
X0068750Y0237750D03*
X0078750Y0237750D03*
X0088750Y0237750D03*
X0098750Y0237750D03*
X0160750Y0237750D03*
X0170750Y0237750D03*
X0180750Y0237750D03*
X0190750Y0237750D03*
X0200750Y0237750D03*
X0262750Y0237750D03*
X0272750Y0237750D03*
X0282750Y0237750D03*
X0292750Y0237750D03*
X0302750Y0237750D03*
X0302750Y0135750D03*
X0292750Y0135750D03*
X0282750Y0135750D03*
X0272750Y0135750D03*
X0262750Y0135750D03*
X0200750Y0135750D03*
X0190750Y0135750D03*
X0180750Y0135750D03*
X0170750Y0135750D03*
X0160750Y0135750D03*
X0098750Y0135750D03*
X0088750Y0135750D03*
X0078750Y0135750D03*
X0068750Y0135750D03*
X0058750Y0135750D03*
X0058750Y0033750D03*
X0068750Y0033750D03*
X0078750Y0033750D03*
X0088750Y0033750D03*
X0098750Y0033750D03*
X0160750Y0033750D03*
X0170750Y0033750D03*
X0180750Y0033750D03*
X0190750Y0033750D03*
X0200750Y0033750D03*
X0262750Y0033750D03*
X0272750Y0033750D03*
X0282750Y0033750D03*
X0292750Y0033750D03*
X0302750Y0033750D03*
D16*
X0247045Y0051092D02*
X0247045Y0054408D01*
X0250361Y0054408D01*
X0250361Y0051092D01*
X0247045Y0051092D01*
X0247045Y0052512D02*
X0250361Y0052512D01*
X0250361Y0053932D02*
X0247045Y0053932D01*
X0240139Y0054408D02*
X0240139Y0051092D01*
X0240139Y0054408D02*
X0243455Y0054408D01*
X0243455Y0051092D01*
X0240139Y0051092D01*
X0240139Y0052512D02*
X0243455Y0052512D01*
X0243455Y0053932D02*
X0240139Y0053932D01*
X0145045Y0054408D02*
X0145045Y0051092D01*
X0145045Y0054408D02*
X0148361Y0054408D01*
X0148361Y0051092D01*
X0145045Y0051092D01*
X0145045Y0052512D02*
X0148361Y0052512D01*
X0148361Y0053932D02*
X0145045Y0053932D01*
X0138139Y0054408D02*
X0138139Y0051092D01*
X0138139Y0054408D02*
X0141455Y0054408D01*
X0141455Y0051092D01*
X0138139Y0051092D01*
X0138139Y0052512D02*
X0141455Y0052512D01*
X0141455Y0053932D02*
X0138139Y0053932D01*
X0043045Y0054408D02*
X0043045Y0051092D01*
X0043045Y0054408D02*
X0046361Y0054408D01*
X0046361Y0051092D01*
X0043045Y0051092D01*
X0043045Y0052512D02*
X0046361Y0052512D01*
X0046361Y0053932D02*
X0043045Y0053932D01*
X0036139Y0054408D02*
X0036139Y0051092D01*
X0036139Y0054408D02*
X0039455Y0054408D01*
X0039455Y0051092D01*
X0036139Y0051092D01*
X0036139Y0052512D02*
X0039455Y0052512D01*
X0039455Y0053932D02*
X0036139Y0053932D01*
X0036139Y0153092D02*
X0036139Y0156408D01*
X0039455Y0156408D01*
X0039455Y0153092D01*
X0036139Y0153092D01*
X0036139Y0154512D02*
X0039455Y0154512D01*
X0039455Y0155932D02*
X0036139Y0155932D01*
X0043045Y0156408D02*
X0043045Y0153092D01*
X0043045Y0156408D02*
X0046361Y0156408D01*
X0046361Y0153092D01*
X0043045Y0153092D01*
X0043045Y0154512D02*
X0046361Y0154512D01*
X0046361Y0155932D02*
X0043045Y0155932D01*
X0138139Y0156408D02*
X0138139Y0153092D01*
X0138139Y0156408D02*
X0141455Y0156408D01*
X0141455Y0153092D01*
X0138139Y0153092D01*
X0138139Y0154512D02*
X0141455Y0154512D01*
X0141455Y0155932D02*
X0138139Y0155932D01*
X0145045Y0156408D02*
X0145045Y0153092D01*
X0145045Y0156408D02*
X0148361Y0156408D01*
X0148361Y0153092D01*
X0145045Y0153092D01*
X0145045Y0154512D02*
X0148361Y0154512D01*
X0148361Y0155932D02*
X0145045Y0155932D01*
X0240139Y0156408D02*
X0240139Y0153092D01*
X0240139Y0156408D02*
X0243455Y0156408D01*
X0243455Y0153092D01*
X0240139Y0153092D01*
X0240139Y0154512D02*
X0243455Y0154512D01*
X0243455Y0155932D02*
X0240139Y0155932D01*
X0247045Y0156408D02*
X0247045Y0153092D01*
X0247045Y0156408D02*
X0250361Y0156408D01*
X0250361Y0153092D01*
X0247045Y0153092D01*
X0247045Y0154512D02*
X0250361Y0154512D01*
X0250361Y0155932D02*
X0247045Y0155932D01*
X0247045Y0255092D02*
X0247045Y0258408D01*
X0250361Y0258408D01*
X0250361Y0255092D01*
X0247045Y0255092D01*
X0247045Y0256512D02*
X0250361Y0256512D01*
X0250361Y0257932D02*
X0247045Y0257932D01*
X0240139Y0258408D02*
X0240139Y0255092D01*
X0240139Y0258408D02*
X0243455Y0258408D01*
X0243455Y0255092D01*
X0240139Y0255092D01*
X0240139Y0256512D02*
X0243455Y0256512D01*
X0243455Y0257932D02*
X0240139Y0257932D01*
X0145045Y0258408D02*
X0145045Y0255092D01*
X0145045Y0258408D02*
X0148361Y0258408D01*
X0148361Y0255092D01*
X0145045Y0255092D01*
X0145045Y0256512D02*
X0148361Y0256512D01*
X0148361Y0257932D02*
X0145045Y0257932D01*
X0138139Y0258408D02*
X0138139Y0255092D01*
X0138139Y0258408D02*
X0141455Y0258408D01*
X0141455Y0255092D01*
X0138139Y0255092D01*
X0138139Y0256512D02*
X0141455Y0256512D01*
X0141455Y0257932D02*
X0138139Y0257932D01*
X0043045Y0258408D02*
X0043045Y0255092D01*
X0043045Y0258408D02*
X0046361Y0258408D01*
X0046361Y0255092D01*
X0043045Y0255092D01*
X0043045Y0256512D02*
X0046361Y0256512D01*
X0046361Y0257932D02*
X0043045Y0257932D01*
X0036139Y0258408D02*
X0036139Y0255092D01*
X0036139Y0258408D02*
X0039455Y0258408D01*
X0039455Y0255092D01*
X0036139Y0255092D01*
X0036139Y0256512D02*
X0039455Y0256512D01*
X0039455Y0257932D02*
X0036139Y0257932D01*
D17*
X0067726Y0275250D03*
X0067726Y0280250D03*
X0067726Y0285250D03*
X0067726Y0290250D03*
X0089774Y0290250D03*
X0089774Y0285250D03*
X0089774Y0280250D03*
X0089774Y0275250D03*
X0169726Y0275250D03*
X0169726Y0280250D03*
X0169726Y0285250D03*
X0169726Y0290250D03*
X0191774Y0290250D03*
X0191774Y0285250D03*
X0191774Y0280250D03*
X0191774Y0275250D03*
X0271726Y0275250D03*
X0271726Y0280250D03*
X0271726Y0285250D03*
X0271726Y0290250D03*
X0293774Y0290250D03*
X0293774Y0285250D03*
X0293774Y0280250D03*
X0293774Y0275250D03*
X0293774Y0188250D03*
X0293774Y0183250D03*
X0293774Y0178250D03*
X0293774Y0173250D03*
X0271726Y0173250D03*
X0271726Y0178250D03*
X0271726Y0183250D03*
X0271726Y0188250D03*
X0191774Y0188250D03*
X0191774Y0183250D03*
X0191774Y0178250D03*
X0191774Y0173250D03*
X0169726Y0173250D03*
X0169726Y0178250D03*
X0169726Y0183250D03*
X0169726Y0188250D03*
X0089774Y0188250D03*
X0089774Y0183250D03*
X0089774Y0178250D03*
X0089774Y0173250D03*
X0067726Y0173250D03*
X0067726Y0178250D03*
X0067726Y0183250D03*
X0067726Y0188250D03*
X0067726Y0086250D03*
X0067726Y0081250D03*
X0067726Y0076250D03*
X0067726Y0071250D03*
X0089774Y0071250D03*
X0089774Y0076250D03*
X0089774Y0081250D03*
X0089774Y0086250D03*
X0169726Y0086250D03*
X0169726Y0081250D03*
X0169726Y0076250D03*
X0169726Y0071250D03*
X0191774Y0071250D03*
X0191774Y0076250D03*
X0191774Y0081250D03*
X0191774Y0086250D03*
X0271726Y0086250D03*
X0271726Y0081250D03*
X0271726Y0076250D03*
X0271726Y0071250D03*
X0293774Y0071250D03*
X0293774Y0076250D03*
X0293774Y0081250D03*
X0293774Y0086250D03*
D18*
X0305750Y0341000D03*
X0055750Y0341000D03*
D19*
X0052185Y0020500D02*
X0052187Y0020619D01*
X0052193Y0020738D01*
X0052203Y0020857D01*
X0052217Y0020975D01*
X0052235Y0021093D01*
X0052256Y0021210D01*
X0052282Y0021326D01*
X0052312Y0021442D01*
X0052345Y0021556D01*
X0052382Y0021669D01*
X0052423Y0021781D01*
X0052468Y0021892D01*
X0052516Y0022001D01*
X0052568Y0022108D01*
X0052624Y0022213D01*
X0052683Y0022317D01*
X0052745Y0022418D01*
X0052811Y0022518D01*
X0052880Y0022615D01*
X0052952Y0022709D01*
X0053028Y0022802D01*
X0053106Y0022891D01*
X0053187Y0022978D01*
X0053272Y0023063D01*
X0053359Y0023144D01*
X0053448Y0023222D01*
X0053541Y0023298D01*
X0053635Y0023370D01*
X0053732Y0023439D01*
X0053832Y0023505D01*
X0053933Y0023567D01*
X0054037Y0023626D01*
X0054142Y0023682D01*
X0054249Y0023734D01*
X0054358Y0023782D01*
X0054469Y0023827D01*
X0054581Y0023868D01*
X0054694Y0023905D01*
X0054808Y0023938D01*
X0054924Y0023968D01*
X0055040Y0023994D01*
X0055157Y0024015D01*
X0055275Y0024033D01*
X0055393Y0024047D01*
X0055512Y0024057D01*
X0055631Y0024063D01*
X0055750Y0024065D01*
X0055869Y0024063D01*
X0055988Y0024057D01*
X0056107Y0024047D01*
X0056225Y0024033D01*
X0056343Y0024015D01*
X0056460Y0023994D01*
X0056576Y0023968D01*
X0056692Y0023938D01*
X0056806Y0023905D01*
X0056919Y0023868D01*
X0057031Y0023827D01*
X0057142Y0023782D01*
X0057251Y0023734D01*
X0057358Y0023682D01*
X0057463Y0023626D01*
X0057567Y0023567D01*
X0057668Y0023505D01*
X0057768Y0023439D01*
X0057865Y0023370D01*
X0057959Y0023298D01*
X0058052Y0023222D01*
X0058141Y0023144D01*
X0058228Y0023063D01*
X0058313Y0022978D01*
X0058394Y0022891D01*
X0058472Y0022802D01*
X0058548Y0022709D01*
X0058620Y0022615D01*
X0058689Y0022518D01*
X0058755Y0022418D01*
X0058817Y0022317D01*
X0058876Y0022213D01*
X0058932Y0022108D01*
X0058984Y0022001D01*
X0059032Y0021892D01*
X0059077Y0021781D01*
X0059118Y0021669D01*
X0059155Y0021556D01*
X0059188Y0021442D01*
X0059218Y0021326D01*
X0059244Y0021210D01*
X0059265Y0021093D01*
X0059283Y0020975D01*
X0059297Y0020857D01*
X0059307Y0020738D01*
X0059313Y0020619D01*
X0059315Y0020500D01*
X0059313Y0020381D01*
X0059307Y0020262D01*
X0059297Y0020143D01*
X0059283Y0020025D01*
X0059265Y0019907D01*
X0059244Y0019790D01*
X0059218Y0019674D01*
X0059188Y0019558D01*
X0059155Y0019444D01*
X0059118Y0019331D01*
X0059077Y0019219D01*
X0059032Y0019108D01*
X0058984Y0018999D01*
X0058932Y0018892D01*
X0058876Y0018787D01*
X0058817Y0018683D01*
X0058755Y0018582D01*
X0058689Y0018482D01*
X0058620Y0018385D01*
X0058548Y0018291D01*
X0058472Y0018198D01*
X0058394Y0018109D01*
X0058313Y0018022D01*
X0058228Y0017937D01*
X0058141Y0017856D01*
X0058052Y0017778D01*
X0057959Y0017702D01*
X0057865Y0017630D01*
X0057768Y0017561D01*
X0057668Y0017495D01*
X0057567Y0017433D01*
X0057463Y0017374D01*
X0057358Y0017318D01*
X0057251Y0017266D01*
X0057142Y0017218D01*
X0057031Y0017173D01*
X0056919Y0017132D01*
X0056806Y0017095D01*
X0056692Y0017062D01*
X0056576Y0017032D01*
X0056460Y0017006D01*
X0056343Y0016985D01*
X0056225Y0016967D01*
X0056107Y0016953D01*
X0055988Y0016943D01*
X0055869Y0016937D01*
X0055750Y0016935D01*
X0055631Y0016937D01*
X0055512Y0016943D01*
X0055393Y0016953D01*
X0055275Y0016967D01*
X0055157Y0016985D01*
X0055040Y0017006D01*
X0054924Y0017032D01*
X0054808Y0017062D01*
X0054694Y0017095D01*
X0054581Y0017132D01*
X0054469Y0017173D01*
X0054358Y0017218D01*
X0054249Y0017266D01*
X0054142Y0017318D01*
X0054037Y0017374D01*
X0053933Y0017433D01*
X0053832Y0017495D01*
X0053732Y0017561D01*
X0053635Y0017630D01*
X0053541Y0017702D01*
X0053448Y0017778D01*
X0053359Y0017856D01*
X0053272Y0017937D01*
X0053187Y0018022D01*
X0053106Y0018109D01*
X0053028Y0018198D01*
X0052952Y0018291D01*
X0052880Y0018385D01*
X0052811Y0018482D01*
X0052745Y0018582D01*
X0052683Y0018683D01*
X0052624Y0018787D01*
X0052568Y0018892D01*
X0052516Y0018999D01*
X0052468Y0019108D01*
X0052423Y0019219D01*
X0052382Y0019331D01*
X0052345Y0019444D01*
X0052312Y0019558D01*
X0052282Y0019674D01*
X0052256Y0019790D01*
X0052235Y0019907D01*
X0052217Y0020025D01*
X0052203Y0020143D01*
X0052193Y0020262D01*
X0052187Y0020381D01*
X0052185Y0020500D01*
D20*
X0055750Y0020500D03*
M02*
