%
M48
M72
T01C0.0120
T02C0.0400
T03C0.1300
%
T01
X5875Y4375
X5825Y4875
X4875Y5875
X5125Y6375
X6825Y6025
X7769Y6981
X8381Y7119
X8875Y6375
X8875Y5962
X9375Y7375
X9425Y8125
X9925Y8175
X10075Y8625
X9210Y9990
X6875Y9875
X6540Y9840
X6325Y8625
X5675Y8225
X4225Y7875
X3425Y9675
X5075Y9675
X5875Y14575
X5825Y15075
X4875Y16075
X5125Y16575
X6825Y16225
X7769Y17181
X8381Y17319
X8875Y16575
X8875Y16162
X9375Y17575
X9425Y18325
X9925Y18375
X10075Y18825
X9210Y20190
X6875Y20075
X6540Y20040
X6325Y18825
X5675Y18425
X4225Y18075
X3425Y19875
X5075Y19875
X5875Y24775
X5825Y25275
X4875Y26275
X5125Y26775
X6825Y26425
X7769Y27381
X8381Y27519
X8875Y26775
X8875Y26362
X9375Y27775
X9425Y28525
X9925Y28575
X10075Y29025
X9210Y30390
X6875Y30275
X6540Y30240
X6325Y29025
X5675Y28625
X5075Y30075
X3425Y30075
X4225Y28275
X10875Y26775
X10725Y26175
X11625Y23925
X15075Y26275
X15325Y26775
X16025Y25275
X16075Y24775
X17025Y26425
X17969Y27381
X18581Y27519
X19075Y26775
X19075Y26362
X19575Y27775
X19625Y28525
X20125Y28575
X20275Y29025
X19410Y30390
X17075Y30275
X16740Y30240
X16525Y29025
X15875Y28625
X14425Y28275
X13625Y30075
X15275Y30075
X21075Y26775
X20925Y26175
X21825Y23925
X25275Y26275
X25525Y26775
X26225Y25275
X26275Y24775
X27225Y26425
X28169Y27381
X28781Y27519
X29275Y26775
X29275Y26362
X29775Y27775
X29825Y28525
X30325Y28575
X30475Y29025
X29610Y30390
X27275Y30275
X26940Y30240
X26725Y29025
X26075Y28625
X24625Y28275
X23825Y30075
X25475Y30075
X31275Y26775
X31125Y26175
X32025Y23925
X29610Y20190
X30475Y18825
X30325Y18375
X29825Y18325
X29775Y17575
X28781Y17319
X28169Y17181
X27225Y16225
X26225Y15075
X26275Y14575
X25275Y16075
X25525Y16575
X24625Y18075
X26075Y18425
X26725Y18825
X26940Y20040
X27275Y20075
X25475Y19875
X23825Y19875
X20275Y18825
X20125Y18375
X19625Y18325
X19575Y17575
X18581Y17319
X17969Y17181
X19075Y16575
X19075Y16162
X17025Y16225
X16025Y15075
X16075Y14575
X15075Y16075
X15325Y16575
X14425Y18075
X15875Y18425
X16525Y18825
X16740Y20040
X17075Y20075
X15275Y19875
X13625Y19875
X10875Y16575
X10725Y15975
X11625Y13725
X13625Y9675
X15275Y9675
X16740Y9840
X17075Y9875
X16525Y8625
X15875Y8225
X14425Y7875
X15325Y6375
X15075Y5875
X16025Y4875
X16075Y4375
X17025Y6025
X17969Y6981
X18581Y7119
X19075Y6375
X19075Y5962
X19575Y7375
X19625Y8125
X20125Y8175
X20275Y8625
X19410Y9990
X21075Y6375
X20925Y5775
X21825Y3525
X25275Y5875
X25525Y6375
X26225Y4875
X26275Y4375
X27225Y6025
X28169Y6981
X28781Y7119
X29275Y6375
X29275Y5962
X29775Y7375
X29825Y8125
X30325Y8175
X30475Y8625
X29610Y9990
X27275Y9875
X26940Y9840
X26725Y8625
X26075Y8225
X24625Y7875
X23825Y9675
X25475Y9675
X21825Y13725
X20925Y15975
X21075Y16575
X19410Y20190
X29275Y16575
X29275Y16162
X31125Y15975
X31275Y16575
X32025Y13725
X31275Y6375
X31125Y5775
X32025Y3525
X11625Y3525
X10725Y5775
X10875Y6375
T02
X5875Y3375
X6875Y3375
X7875Y3375
X8875Y3375
X9875Y3375
X16075Y3375
X17075Y3375
X18075Y3375
X19075Y3375
X20075Y3375
X26275Y3375
X27275Y3375
X28275Y3375
X29275Y3375
X30275Y3375
X30275Y13575
X29275Y13575
X28275Y13575
X27275Y13575
X26275Y13575
X20075Y13575
X19075Y13575
X18075Y13575
X17075Y13575
X16075Y13575
X9875Y13575
X8875Y13575
X7875Y13575
X6875Y13575
X5875Y13575
X5875Y23775
X6875Y23775
X7875Y23775
X8875Y23775
X9875Y23775
X16075Y23775
X17075Y23775
X18075Y23775
X19075Y23775
X20075Y23775
X26275Y23775
X27275Y23775
X28275Y23775
X29275Y23775
X30275Y23775
T03
X32275Y22075
X24275Y22075
X22075Y22075
X14075Y22075
X11875Y22075
X3875Y22075
X3875Y32275
X11875Y32275
X14075Y32275
X22075Y32275
X24275Y32275
X32275Y32275
X32275Y11875
X24275Y11875
X22075Y11875
X14075Y11875
X11875Y11875
X3875Y11875
M30
