G75*
%MOIN*%
%OFA0B0*%
%FSLAX25Y25*%
%IPPOS*%
%LPD*%
%AMOC8*
5,1,8,0,0,1.08239X$1,22.5*
%
%ADD10C,0.13800*%
%ADD11R,0.03300X0.05800*%
%ADD12C,0.00500*%
%ADD13C,0.08200*%
%ADD14C,0.03300*%
%ADD15R,0.05800X0.03300*%
D10*
X0038750Y0118750D03*
X0118750Y0118750D03*
X0140750Y0118750D03*
X0220750Y0118750D03*
X0242750Y0118750D03*
X0322750Y0118750D03*
X0322750Y0220750D03*
X0242750Y0220750D03*
X0220750Y0220750D03*
X0140750Y0220750D03*
X0118750Y0220750D03*
X0038750Y0220750D03*
X0038750Y0322750D03*
X0118750Y0322750D03*
X0140750Y0322750D03*
X0220750Y0322750D03*
X0242750Y0322750D03*
X0322750Y0322750D03*
D11*
X0286750Y0297750D03*
X0282750Y0297750D03*
X0278750Y0297750D03*
X0278750Y0267750D03*
X0282750Y0267750D03*
X0286750Y0267750D03*
X0298750Y0267750D03*
X0302750Y0267750D03*
X0306750Y0267750D03*
X0266750Y0267750D03*
X0262750Y0267750D03*
X0258750Y0267750D03*
X0204750Y0267750D03*
X0200750Y0267750D03*
X0196750Y0267750D03*
X0184750Y0267750D03*
X0180750Y0267750D03*
X0176750Y0267750D03*
X0164750Y0267750D03*
X0160750Y0267750D03*
X0156750Y0267750D03*
X0176750Y0297750D03*
X0180750Y0297750D03*
X0184750Y0297750D03*
X0102750Y0267750D03*
X0098750Y0267750D03*
X0094750Y0267750D03*
X0082750Y0267750D03*
X0078750Y0267750D03*
X0074750Y0267750D03*
X0062750Y0267750D03*
X0058750Y0267750D03*
X0054750Y0267750D03*
X0074750Y0297750D03*
X0078750Y0297750D03*
X0082750Y0297750D03*
X0082750Y0195750D03*
X0078750Y0195750D03*
X0074750Y0195750D03*
X0074750Y0165750D03*
X0078750Y0165750D03*
X0082750Y0165750D03*
X0094750Y0165750D03*
X0098750Y0165750D03*
X0102750Y0165750D03*
X0062750Y0165750D03*
X0058750Y0165750D03*
X0054750Y0165750D03*
X0074750Y0093750D03*
X0078750Y0093750D03*
X0082750Y0093750D03*
X0082750Y0063750D03*
X0078750Y0063750D03*
X0074750Y0063750D03*
X0062750Y0063750D03*
X0058750Y0063750D03*
X0054750Y0063750D03*
X0094750Y0063750D03*
X0098750Y0063750D03*
X0102750Y0063750D03*
X0156750Y0063750D03*
X0160750Y0063750D03*
X0164750Y0063750D03*
X0176750Y0063750D03*
X0180750Y0063750D03*
X0184750Y0063750D03*
X0196750Y0063750D03*
X0200750Y0063750D03*
X0204750Y0063750D03*
X0184750Y0093750D03*
X0180750Y0093750D03*
X0176750Y0093750D03*
X0176750Y0165750D03*
X0180750Y0165750D03*
X0184750Y0165750D03*
X0196750Y0165750D03*
X0200750Y0165750D03*
X0204750Y0165750D03*
X0184750Y0195750D03*
X0180750Y0195750D03*
X0176750Y0195750D03*
X0164750Y0165750D03*
X0160750Y0165750D03*
X0156750Y0165750D03*
X0258750Y0165750D03*
X0262750Y0165750D03*
X0266750Y0165750D03*
X0278750Y0165750D03*
X0282750Y0165750D03*
X0286750Y0165750D03*
X0298750Y0165750D03*
X0302750Y0165750D03*
X0306750Y0165750D03*
X0286750Y0195750D03*
X0282750Y0195750D03*
X0278750Y0195750D03*
X0278750Y0093750D03*
X0282750Y0093750D03*
X0286750Y0093750D03*
X0286750Y0063750D03*
X0282750Y0063750D03*
X0278750Y0063750D03*
X0266750Y0063750D03*
X0262750Y0063750D03*
X0258750Y0063750D03*
X0298750Y0063750D03*
X0302750Y0063750D03*
X0306750Y0063750D03*
D12*
X0301500Y0063646D02*
X0300000Y0063646D01*
X0300000Y0063250D02*
X0301500Y0063250D01*
X0301500Y0064250D01*
X0300000Y0064250D01*
X0300000Y0063250D01*
X0300000Y0064144D02*
X0301500Y0064144D01*
X0281500Y0064144D02*
X0280000Y0064144D01*
X0280000Y0064250D02*
X0280000Y0063250D01*
X0281500Y0063250D01*
X0281500Y0064250D01*
X0280000Y0064250D01*
X0280000Y0063646D02*
X0281500Y0063646D01*
X0261500Y0063646D02*
X0260000Y0063646D01*
X0260000Y0063250D02*
X0261500Y0063250D01*
X0261500Y0064250D01*
X0260000Y0064250D01*
X0260000Y0063250D01*
X0260000Y0064144D02*
X0261500Y0064144D01*
X0280000Y0093250D02*
X0285500Y0093250D01*
X0285500Y0094250D01*
X0280000Y0094250D01*
X0280000Y0093250D01*
X0280000Y0093556D02*
X0285500Y0093556D01*
X0285500Y0094055D02*
X0280000Y0094055D01*
X0280000Y0165250D02*
X0281500Y0165250D01*
X0281500Y0166250D01*
X0280000Y0166250D01*
X0280000Y0165250D01*
X0280000Y0165342D02*
X0281500Y0165342D01*
X0281500Y0165841D02*
X0280000Y0165841D01*
X0300000Y0165841D02*
X0301500Y0165841D01*
X0301500Y0166250D02*
X0301500Y0165250D01*
X0300000Y0165250D01*
X0300000Y0166250D01*
X0301500Y0166250D01*
X0301500Y0165342D02*
X0300000Y0165342D01*
X0285500Y0195250D02*
X0280000Y0195250D01*
X0280000Y0196250D01*
X0285500Y0196250D01*
X0285500Y0195250D01*
X0285500Y0195253D02*
X0280000Y0195253D01*
X0280000Y0195751D02*
X0285500Y0195751D01*
X0285500Y0196250D02*
X0280000Y0196250D01*
X0261500Y0166250D02*
X0261500Y0165250D01*
X0260000Y0165250D01*
X0260000Y0166250D01*
X0261500Y0166250D01*
X0261500Y0165841D02*
X0260000Y0165841D01*
X0260000Y0165342D02*
X0261500Y0165342D01*
X0199500Y0165342D02*
X0198000Y0165342D01*
X0198000Y0165250D02*
X0199500Y0165250D01*
X0199500Y0166250D01*
X0198000Y0166250D01*
X0198000Y0165250D01*
X0198000Y0165841D02*
X0199500Y0165841D01*
X0179500Y0165841D02*
X0178000Y0165841D01*
X0178000Y0166250D02*
X0178000Y0165250D01*
X0179500Y0165250D01*
X0179500Y0166250D01*
X0178000Y0166250D01*
X0178000Y0165342D02*
X0179500Y0165342D01*
X0159500Y0165342D02*
X0158000Y0165342D01*
X0158000Y0165250D02*
X0159500Y0165250D01*
X0159500Y0166250D01*
X0158000Y0166250D01*
X0158000Y0165250D01*
X0158000Y0165841D02*
X0159500Y0165841D01*
X0178000Y0195250D02*
X0183500Y0195250D01*
X0183500Y0196250D01*
X0178000Y0196250D01*
X0178000Y0195250D01*
X0178000Y0195253D02*
X0183500Y0195253D01*
X0183500Y0195751D02*
X0178000Y0195751D01*
X0178000Y0196250D02*
X0183500Y0196250D01*
X0179500Y0267250D02*
X0178000Y0267250D01*
X0178000Y0268250D01*
X0179500Y0268250D01*
X0179500Y0267250D01*
X0179500Y0267537D02*
X0178000Y0267537D01*
X0178000Y0268035D02*
X0179500Y0268035D01*
X0198000Y0268035D02*
X0199500Y0268035D01*
X0199500Y0268250D02*
X0199500Y0267250D01*
X0198000Y0267250D01*
X0198000Y0268250D01*
X0199500Y0268250D01*
X0199500Y0267537D02*
X0198000Y0267537D01*
X0183500Y0297250D02*
X0178000Y0297250D01*
X0178000Y0298250D01*
X0183500Y0298250D01*
X0183500Y0297250D01*
X0183500Y0297448D02*
X0178000Y0297448D01*
X0178000Y0297946D02*
X0183500Y0297946D01*
X0159500Y0268250D02*
X0159500Y0267250D01*
X0158000Y0267250D01*
X0158000Y0268250D01*
X0159500Y0268250D01*
X0159500Y0268035D02*
X0158000Y0268035D01*
X0158000Y0267537D02*
X0159500Y0267537D01*
X0097500Y0267537D02*
X0096000Y0267537D01*
X0096000Y0267250D02*
X0097500Y0267250D01*
X0097500Y0268250D01*
X0096000Y0268250D01*
X0096000Y0267250D01*
X0096000Y0268035D02*
X0097500Y0268035D01*
X0077500Y0268035D02*
X0076000Y0268035D01*
X0076000Y0268250D02*
X0076000Y0267250D01*
X0077500Y0267250D01*
X0077500Y0268250D01*
X0076000Y0268250D01*
X0076000Y0267537D02*
X0077500Y0267537D01*
X0057500Y0267537D02*
X0056000Y0267537D01*
X0056000Y0267250D02*
X0057500Y0267250D01*
X0057500Y0268250D01*
X0056000Y0268250D01*
X0056000Y0267250D01*
X0056000Y0268035D02*
X0057500Y0268035D01*
X0076000Y0297250D02*
X0081500Y0297250D01*
X0081500Y0298250D01*
X0076000Y0298250D01*
X0076000Y0297250D01*
X0076000Y0297448D02*
X0081500Y0297448D01*
X0081500Y0297946D02*
X0076000Y0297946D01*
X0076000Y0196250D02*
X0076000Y0195250D01*
X0081500Y0195250D01*
X0081500Y0196250D01*
X0076000Y0196250D01*
X0081500Y0196250D01*
X0081500Y0195751D02*
X0076000Y0195751D01*
X0076000Y0195253D02*
X0081500Y0195253D01*
X0077500Y0166250D02*
X0077500Y0165250D01*
X0076000Y0165250D01*
X0076000Y0166250D01*
X0077500Y0166250D01*
X0077500Y0165841D02*
X0076000Y0165841D01*
X0076000Y0165342D02*
X0077500Y0165342D01*
X0057500Y0165342D02*
X0056000Y0165342D01*
X0056000Y0165250D02*
X0057500Y0165250D01*
X0057500Y0166250D01*
X0056000Y0166250D01*
X0056000Y0165250D01*
X0056000Y0165841D02*
X0057500Y0165841D01*
X0096000Y0165841D02*
X0097500Y0165841D01*
X0097500Y0166250D02*
X0097500Y0165250D01*
X0096000Y0165250D01*
X0096000Y0166250D01*
X0097500Y0166250D01*
X0097500Y0165342D02*
X0096000Y0165342D01*
X0081500Y0094250D02*
X0076000Y0094250D01*
X0076000Y0093250D01*
X0081500Y0093250D01*
X0081500Y0094250D01*
X0081500Y0094055D02*
X0076000Y0094055D01*
X0076000Y0093556D02*
X0081500Y0093556D01*
X0077500Y0064250D02*
X0077500Y0063250D01*
X0076000Y0063250D01*
X0076000Y0064250D01*
X0077500Y0064250D01*
X0077500Y0064144D02*
X0076000Y0064144D01*
X0076000Y0063646D02*
X0077500Y0063646D01*
X0057500Y0063646D02*
X0056000Y0063646D01*
X0056000Y0063250D02*
X0057500Y0063250D01*
X0057500Y0064250D01*
X0056000Y0064250D01*
X0056000Y0063250D01*
X0056000Y0064144D02*
X0057500Y0064144D01*
X0096000Y0064144D02*
X0097500Y0064144D01*
X0097500Y0064250D02*
X0097500Y0063250D01*
X0096000Y0063250D01*
X0096000Y0064250D01*
X0097500Y0064250D01*
X0097500Y0063646D02*
X0096000Y0063646D01*
X0158000Y0063646D02*
X0159500Y0063646D01*
X0159500Y0063250D02*
X0159500Y0064250D01*
X0158000Y0064250D01*
X0158000Y0063250D01*
X0159500Y0063250D01*
X0159500Y0064144D02*
X0158000Y0064144D01*
X0178000Y0064144D02*
X0179500Y0064144D01*
X0179500Y0064250D02*
X0179500Y0063250D01*
X0178000Y0063250D01*
X0178000Y0064250D01*
X0179500Y0064250D01*
X0179500Y0063646D02*
X0178000Y0063646D01*
X0198000Y0063646D02*
X0199500Y0063646D01*
X0199500Y0063250D02*
X0199500Y0064250D01*
X0198000Y0064250D01*
X0198000Y0063250D01*
X0199500Y0063250D01*
X0199500Y0064144D02*
X0198000Y0064144D01*
X0183500Y0093250D02*
X0178000Y0093250D01*
X0178000Y0094250D01*
X0183500Y0094250D01*
X0183500Y0093250D01*
X0183500Y0093556D02*
X0178000Y0093556D01*
X0178000Y0094055D02*
X0183500Y0094055D01*
X0260000Y0267250D02*
X0261500Y0267250D01*
X0261500Y0268250D01*
X0260000Y0268250D01*
X0260000Y0267250D01*
X0260000Y0267537D02*
X0261500Y0267537D01*
X0261500Y0268035D02*
X0260000Y0268035D01*
X0280000Y0268035D02*
X0281500Y0268035D01*
X0281500Y0268250D02*
X0281500Y0267250D01*
X0280000Y0267250D01*
X0280000Y0268250D01*
X0281500Y0268250D01*
X0281500Y0267537D02*
X0280000Y0267537D01*
X0300000Y0267537D02*
X0301500Y0267537D01*
X0301500Y0267250D02*
X0301500Y0268250D01*
X0300000Y0268250D01*
X0300000Y0267250D01*
X0301500Y0267250D01*
X0301500Y0268035D02*
X0300000Y0268035D01*
X0285500Y0297250D02*
X0280000Y0297250D01*
X0280000Y0298250D01*
X0285500Y0298250D01*
X0285500Y0297250D01*
X0285500Y0297448D02*
X0280000Y0297448D01*
X0280000Y0297946D02*
X0285500Y0297946D01*
D13*
X0282750Y0237750D03*
X0272750Y0237750D03*
X0262750Y0237750D03*
X0292750Y0237750D03*
X0302750Y0237750D03*
X0200750Y0237750D03*
X0190750Y0237750D03*
X0180750Y0237750D03*
X0170750Y0237750D03*
X0160750Y0237750D03*
X0098750Y0237750D03*
X0088750Y0237750D03*
X0078750Y0237750D03*
X0068750Y0237750D03*
X0058750Y0237750D03*
X0058750Y0135750D03*
X0068750Y0135750D03*
X0078750Y0135750D03*
X0088750Y0135750D03*
X0098750Y0135750D03*
X0160750Y0135750D03*
X0170750Y0135750D03*
X0180750Y0135750D03*
X0190750Y0135750D03*
X0200750Y0135750D03*
X0262750Y0135750D03*
X0272750Y0135750D03*
X0282750Y0135750D03*
X0292750Y0135750D03*
X0302750Y0135750D03*
X0302750Y0033750D03*
X0292750Y0033750D03*
X0282750Y0033750D03*
X0272750Y0033750D03*
X0262750Y0033750D03*
X0200750Y0033750D03*
X0190750Y0033750D03*
X0180750Y0033750D03*
X0170750Y0033750D03*
X0160750Y0033750D03*
X0098750Y0033750D03*
X0088750Y0033750D03*
X0078750Y0033750D03*
X0068750Y0033750D03*
X0058750Y0033750D03*
D14*
X0125250Y0032250D03*
X0133750Y0125750D03*
X0125250Y0134250D03*
X0031750Y0125750D03*
X0031750Y0227750D03*
X0125250Y0236250D03*
X0133750Y0227750D03*
X0227250Y0236250D03*
X0235750Y0227750D03*
X0329250Y0236250D03*
X0235750Y0329750D03*
X0133750Y0329750D03*
X0031750Y0329750D03*
X0227250Y0134250D03*
X0235750Y0125750D03*
X0329250Y0134250D03*
X0329250Y0032250D03*
X0227250Y0032250D03*
D15*
X0038750Y0053650D03*
X0038750Y0056850D03*
X0038750Y0155650D03*
X0038750Y0158850D03*
X0140750Y0158850D03*
X0140750Y0155650D03*
X0242750Y0155650D03*
X0242750Y0158850D03*
X0242750Y0257650D03*
X0242750Y0260850D03*
X0140750Y0260850D03*
X0140750Y0257650D03*
X0038750Y0257650D03*
X0038750Y0260850D03*
X0140750Y0056850D03*
X0140750Y0053650D03*
X0242750Y0053650D03*
X0242750Y0056850D03*
M02*
